<?xml version="1.0" encoding="UTF-8" standalone="no"?>
<svg
   width="16px"
   height="16px"
   viewBox="0 0 16 16"
   version="1.1"
   id="svg143"
   sodipodi:docname="icon-edit-page.svg"
   inkscape:version="1.2.1 (9c6d41e, 2022-07-14)"
   xmlns:inkscape="http://www.inkscape.org/namespaces/inkscape"
   xmlns:sodipodi="http://sodipodi.sourceforge.net/DTD/sodipodi-0.dtd"
   xmlns="http://www.w3.org/2000/svg"
   xmlns:svg="http://www.w3.org/2000/svg">
  <defs
     id="defs147" />
  <sodipodi:namedview
     id="namedview145"
     pagecolor="#ffffff"
     bordercolor="#000000"
     borderopacity="0.25"
     inkscape:showpageshadow="2"
     inkscape:pageopacity="0.0"
     inkscape:pagecheckerboard="0"
     inkscape:deskcolor="#d1d1d1"
     showgrid="false"
     inkscape:zoom="14.75"
     inkscape:cx="6.6440678"
     inkscape:cy="8.1016949"
     inkscape:window-width="1309"
     inkscape:window-height="687"
     inkscape:window-x="55"
     inkscape:window-y="38"
     inkscape:window-maximized="0"
     inkscape:current-layer="svg143" />
  <!-- Generator: Sketch 58 (84663) - https://sketch.com -->
  <title
     id="title132">edit</title>
  <rect
     style="fill:#ffffff;stroke-width:5.70457;stroke-linecap:round"
     id="rect1340"
     width="16"
     height="16"
     x="0"
     y="0" />
  <desc
     id="desc134">Created with Sketch.</desc>
  <g
     id="edit"
     stroke="none"
     stroke-width="1"
     fill="none"
     fill-rule="evenodd">
    <g
       id="Group-37"
       fill="#000000"
       fill-rule="nonzero">
      <g
         id="Group-7-Copy-3">
        <path
           d="M11.7,9.7 L11.7,14.6 C11.7,14.7104569 11.6104569,14.8 11.5,14.8 L1.7,14.8 C1.58954305,14.8 1.5,14.7104569 1.5,14.6 L1.5,4.8 C1.5,4.68954305 1.58954305,4.6 1.7,4.6 L6.6,4.6 L6.6,3.6 L1.7,3.6 C1.0372583,3.6 0.5,4.1372583 0.5,4.8 L0.5,14.6 C0.5,15.2627417 1.0372583,15.8 1.7,15.8 L11.5,15.8 C12.1627417,15.8 12.7,15.2627417 12.7,14.6 L12.7,9.7 L11.7,9.7 Z"
           id="Path" />
        <g
           id="Group-Copy-3"
           transform="translate(9.032304, 6.982010) rotate(-315.000000) translate(-9.032304, -6.982010) translate(7.032304, -0.017990)">
          <polygon
             id="Path-67"
             points="1 3.93749129 3.29463415 3.93749129 3.29463415 2.79463415 1 2.79463415" />
          <path
             d="M0.5,2.14731707 L0.5,10.2965706 L2.14731707,13.5912047 L3.79463415,10.2965706 L3.79463415,2.14731707 C3.79463415,1.23752898 3.05710517,0.5 2.14731707,0.5 C1.23752898,0.5 0.5,1.23752898 0.5,2.14731707 Z M2.14731707,11.3551367 L1.5,10.0605026 L1.5,2.14731707 C1.5,1.78981373 1.78981373,1.5 2.14731707,1.5 C2.50482042,1.5 2.79463415,1.78981373 2.79463415,2.14731707 L2.79463415,10.0605026 L2.14731707,11.3551367 Z"
             id="Path-58" />
        </g>
      </g>
    </g>
  </g>
</svg>
