<?xml version="1.0" encoding="UTF-8" standalone="no"?>
<svg
   width="16px"
   height="16px"
   viewBox="0 0 16 16"
   version="1.1"
   id="svg140"
   sodipodi:docname="icon-edit.svg"
   inkscape:version="1.2.1 (9c6d41e, 2022-07-14)"
   xmlns:inkscape="http://www.inkscape.org/namespaces/inkscape"
   xmlns:sodipodi="http://sodipodi.sourceforge.net/DTD/sodipodi-0.dtd"
   xmlns="http://www.w3.org/2000/svg"
   xmlns:svg="http://www.w3.org/2000/svg">
  <defs
     id="defs144" />
  <sodipodi:namedview
     id="namedview142"
     pagecolor="#ffffff"
     bordercolor="#000000"
     borderopacity="0.25"
     inkscape:showpageshadow="2"
     inkscape:pageopacity="0.0"
     inkscape:pagecheckerboard="0"
     inkscape:deskcolor="#d1d1d1"
     showgrid="false"
     inkscape:zoom="14.75"
     inkscape:cx="7.6271186"
     inkscape:cy="8"
     inkscape:window-width="1309"
     inkscape:window-height="456"
     inkscape:window-x="55"
     inkscape:window-y="38"
     inkscape:window-maximized="0"
     inkscape:current-layer="svg140" />
  <!-- Generator: Sketch 59.1 (86144) - https://sketch.com -->
  <title
     id="title132">edit_03</title>
  <rect
     style="fill:#ffffff;stroke-width:7.14697;stroke-linecap:round"
     id="rect1232"
     width="16"
     height="16"
     x="0"
     y="0" />
  <desc
     id="desc134">Created with Sketch.</desc>
  <g
     id="edit_03"
     stroke="none"
     stroke-width="1"
     fill="none"
     fill-rule="evenodd">
    <g
       id="Group-34"
       transform="translate(-1.000000, -1.000000)"
       fill="#000000"
       fill-rule="nonzero">
      <polygon
         id="Path-67"
         transform="translate(13.039665, 4.594565) rotate(-315.000000) translate(-13.039665, -4.594565) "
         points="11.283567 5.15706493 14.7957621 5.15706493 14.7957621 4.03206493 11.283567 4.03206493" />
      <path
         d="M9.06859756,-1.125 C10.3491236,-1.125 11.3871951,-0.0869285129 11.3871951,1.19359756 L11.3871951,13.6190687 L9.06859756,18.2562638 L6.75,13.6190687 L6.75,1.19359756 C6.75,-0.0869285129 7.78807149,-1.125 9.06859756,-1.125 Z M10.2621951,1.19359756 C10.2621951,0.534391831 9.72780329,0 9.06859756,0 C8.40939183,0 7.875,0.534391831 7.875,1.19359756 L7.875,13.3534923 L9.06859756,15.7406874 L10.2621951,13.3534923 L10.2621951,1.19359756 Z"
         id="Path-58"
         transform="translate(9.068598, 8.565632) rotate(-315.000000) translate(-9.068598, -8.565632) " />
    </g>
  </g>
</svg>
